<?xml version="1.0" encoding="utf-8"?>
<!-- Generator: Adobe Illustrator 23.1.0, SVG Export Plug-In . SVG Version: 6.00 Build 0)  -->
<svg version="1.1" id="Layer_1" xmlns="http://www.w3.org/2000/svg" xmlns:xlink="http://www.w3.org/1999/xlink" x="0px" y="0px"
	 viewBox="0 0 841.89 595.28" style="enable-background:new 0 0 841.89 595.28;" xml:space="preserve">
<style type="text/css">
	.st0{fill:url(#SVGID_1_);}
	.st1{fill:url(#SVGID_2_);}
	.st2{fill:url(#SVGID_3_);}
	.st3{fill:url(#SVGID_4_);}
	.st4{fill:url(#SVGID_5_);}
	.st5{fill:url(#SVGID_6_);}
	.st6{fill:url(#SVGID_7_);}
	.st7{fill:url(#SVGID_8_);}
	.st8{fill:url(#SVGID_9_);}
	.st9{fill:url(#SVGID_10_);}
	.st10{fill:url(#SVGID_11_);}
	.st11{fill:url(#SVGID_12_);}
	.st12{fill:url(#SVGID_13_);}
	.st13{fill:url(#SVGID_14_);}
	.st14{fill:url(#SVGID_15_);}
	.st15{fill:url(#SVGID_16_);}
	.st16{fill:url(#SVGID_17_);}
	.st17{fill:url(#SVGID_18_);}
	.st18{fill:url(#SVGID_19_);}
	.st19{fill:url(#SVGID_20_);}
	.st20{fill:url(#SVGID_21_);}
	.st21{fill:url(#SVGID_22_);}
	.st22{fill:url(#SVGID_23_);}
	.st23{fill:url(#SVGID_24_);}
	.st24{fill:url(#SVGID_25_);}
	.st25{fill:url(#SVGID_26_);}
	.st26{fill:url(#SVGID_27_);}
	.st27{fill:url(#SVGID_28_);}
	.st28{fill:url(#SVGID_29_);}
	.st29{fill:url(#SVGID_30_);}
	.st30{fill:url(#SVGID_31_);}
	.st31{fill:url(#SVGID_32_);}
	.st32{fill:url(#SVGID_33_);}
	.st33{fill:url(#SVGID_34_);}
	.st34{fill:url(#SVGID_35_);}
	.st35{fill:url(#SVGID_36_);}
	.st36{fill:url(#SVGID_37_);}
	.st37{fill:url(#SVGID_38_);}
	.st38{fill:url(#SVGID_39_);}
	.st39{fill:url(#SVGID_40_);}
	.st40{fill:url(#SVGID_41_);}
	.st41{fill:url(#SVGID_42_);}
	.st42{fill:url(#SVGID_43_);}
	.st43{fill:url(#SVGID_44_);}
	.st44{fill:url(#SVGID_45_);}
	.st45{fill:url(#SVGID_46_);}
	.st46{fill:url(#SVGID_47_);}
	.st47{fill:url(#SVGID_48_);}
	.st48{fill:url(#SVGID_49_);}
	.st49{fill:url(#SVGID_50_);}
	.st50{fill:url(#SVGID_51_);}
	.st51{fill:url(#SVGID_52_);}
	.st52{fill:url(#SVGID_53_);}
	.st53{fill:url(#SVGID_54_);}
	.st54{fill:url(#SVGID_55_);}
	.st55{fill:url(#SVGID_56_);}
	.st56{fill:url(#SVGID_57_);}
	.st57{fill:url(#SVGID_58_);}
	.st58{fill:url(#SVGID_59_);}
	.st59{fill:url(#SVGID_60_);}
	.st60{fill:url(#SVGID_61_);}
</style>
<g>
	<linearGradient id="SVGID_1_" gradientUnits="userSpaceOnUse" x1="266.3752" y1="432.0112" x2="551.4693" y2="165.2119">
		<stop  offset="0" style="stop-color:#EC008C"/>
		<stop  offset="1" style="stop-color:#2E3192"/>
	</linearGradient>
	<path class="st0" d="M191.84,508.27c0,0.08-0.12,0.15-0.35,0.19c-0.23,0.04-0.37,0-0.41-0.13c-0.68-2.45-1.82-4.27-3.43-5.46
		c-1.61-1.18-3.72-1.78-6.35-1.78h-1.9c-1.27,0-2.2,0.28-2.79,0.83c-0.59,0.55-0.89,1.4-0.89,2.54v13.71h4.57
		c2.45,0,4.33-0.43,5.62-1.3c1.29-0.87,1.94-2.06,1.94-3.59c0-0.08,0.13-0.13,0.38-0.13c0.25,0,0.38,0.04,0.38,0.13l-0.06,5.77
		c0,1.36,0.02,2.37,0.06,3.05l0.06,3.36c0,0.13-0.13,0.19-0.38,0.19c-0.25,0-0.38-0.06-0.38-0.19c0-1.69-0.67-3.03-2-4.03
		c-1.33-0.99-3.23-1.49-5.68-1.49h-4.51v13.58c0,1.31,0.17,2.29,0.51,2.92c0.34,0.64,0.97,1.08,1.9,1.33
		c0.93,0.25,2.39,0.38,4.38,0.38c0.08,0,0.13,0.13,0.13,0.38c0,0.25-0.04,0.38-0.13,0.38c-1.74,0-3.09-0.02-4.06-0.06l-6.47-0.06
		l-4.76,0.06c-0.85,0.04-2.01,0.06-3.49,0.06c-0.13,0-0.19-0.13-0.19-0.38c0-0.25,0.06-0.38,0.19-0.38c1.48,0,2.56-0.11,3.24-0.32
		c0.68-0.21,1.13-0.62,1.36-1.24c0.23-0.61,0.35-1.56,0.35-2.82V504.4c0-1.27-0.11-2.2-0.32-2.79c-0.21-0.59-0.64-1-1.27-1.24
		s-1.61-0.35-2.92-0.35c-0.13,0-0.19-0.13-0.19-0.38s0.06-0.38,0.19-0.38h26.91c0.42,0,0.63,0.19,0.63,0.57L191.84,508.27z"/>
	<linearGradient id="SVGID_2_" gradientUnits="userSpaceOnUse" x1="281.3978" y1="448.0639" x2="566.4919" y2="181.2646">
		<stop  offset="0" style="stop-color:#EC008C"/>
		<stop  offset="1" style="stop-color:#2E3192"/>
	</linearGradient>
	<path class="st1" d="M209.42,536.64c0.21,0.59,0.62,0.99,1.24,1.2c0.61,0.21,1.6,0.32,2.95,0.32c0.13,0,0.19,0.13,0.19,0.38
		c0,0.25-0.06,0.38-0.19,0.38c-1.4,0-2.5-0.02-3.3-0.06l-4.82-0.06l-4.7,0.06c-0.85,0.04-1.99,0.06-3.43,0.06
		c-0.08,0-0.13-0.13-0.13-0.38c0-0.25,0.04-0.38,0.13-0.38c1.35,0,2.35-0.11,2.98-0.32c0.63-0.21,1.07-0.62,1.3-1.24
		c0.23-0.61,0.35-1.56,0.35-2.82V504.4c0-1.27-0.12-2.2-0.35-2.79c-0.23-0.59-0.67-1-1.3-1.24s-1.63-0.35-2.98-0.35
		c-0.08,0-0.13-0.13-0.13-0.38s0.04-0.38,0.13-0.38l3.43,0.06c1.95,0.08,3.51,0.13,4.7,0.13c1.31,0,2.94-0.04,4.89-0.13l3.24-0.06
		c0.13,0,0.19,0.13,0.19,0.38s-0.06,0.38-0.19,0.38c-1.31,0-2.29,0.13-2.92,0.38c-0.63,0.25-1.06,0.69-1.27,1.3
		c-0.21,0.62-0.32,1.56-0.32,2.82v29.26C209.11,535.09,209.21,536.05,209.42,536.64z"/>
	<linearGradient id="SVGID_3_" gradientUnits="userSpaceOnUse" x1="454.8279" y1="633.3863" x2="739.9219" y2="366.587">
		<stop  offset="0" style="stop-color:#EC008C"/>
		<stop  offset="1" style="stop-color:#2E3192"/>
	</linearGradient>
	<path class="st2" d="M601.52,499.64c0,0.25-0.04,0.38-0.13,0.38c-1.69,0-3.03,0.67-4,2c-0.97,1.33-1.46,3.12-1.46,5.36v32.49
		c0,0.13-0.1,0.21-0.29,0.25c-0.19,0.04-0.33,0.02-0.41-0.06l-29.77-33.89v24.69c0,2.24,0.47,4.02,1.4,5.33
		c0.93,1.31,2.22,1.97,3.87,1.97c0.08,0,0.13,0.13,0.13,0.38c0,0.25-0.04,0.38-0.13,0.38c-1.19,0-2.09-0.02-2.73-0.06l-3.43-0.06
		l-3.93,0.06c-0.72,0.04-1.76,0.06-3.11,0.06c-0.13,0-0.19-0.13-0.19-0.38c0-0.25,0.06-0.38,0.19-0.38c1.86,0,3.33-0.66,4.41-1.97
		c1.08-1.31,1.62-3.09,1.62-5.33v-26.85c-1.4-1.52-2.59-2.57-3.59-3.14c-0.99-0.57-2.02-0.86-3.08-0.86c-0.09,0-0.13-0.13-0.13-0.38
		s0.04-0.38,0.13-0.38l2.67,0.06c0.55,0.04,1.35,0.06,2.41,0.06l4.82-0.06c0.59-0.04,1.31-0.06,2.16-0.06
		c0.34,0,0.59,0.09,0.76,0.25c0.17,0.17,0.47,0.53,0.89,1.08c0.72,0.97,1.23,1.63,1.52,1.97l21.96,25.32v-20.5
		c0-2.29-0.47-4.08-1.4-5.4c-0.93-1.31-2.22-1.97-3.87-1.97c-0.08,0-0.13-0.13-0.13-0.38s0.04-0.38,0.13-0.38l2.73,0.06
		c1.35,0.08,2.5,0.13,3.43,0.13c0.85,0,2.03-0.04,3.55-0.13l2.86-0.06C601.48,499.26,601.52,499.38,601.52,499.64z"/>
	<linearGradient id="SVGID_4_" gradientUnits="userSpaceOnUse" x1="479.7077" y1="659.9722" x2="764.8018" y2="393.1729">
		<stop  offset="0" style="stop-color:#EC008C"/>
		<stop  offset="1" style="stop-color:#2E3192"/>
	</linearGradient>
	<path class="st3" d="M616.31,536.99c-3.55-1.8-6.28-4.24-8.19-7.33c-1.9-3.09-2.86-6.52-2.86-10.28c0-4.02,1.07-7.62,3.21-10.79
		c2.14-3.17,5.09-5.64,8.85-7.39c3.77-1.76,8-2.63,12.69-2.63c2.03,0,4.06,0.16,6.09,0.48c2.03,0.32,3.66,0.73,4.89,1.24
		c0.47,0.17,0.73,0.31,0.79,0.41c0.06,0.11,0.12,0.46,0.16,1.05l0.83,8.82c0,0.13-0.12,0.21-0.35,0.25
		c-0.23,0.04-0.37-0.02-0.41-0.19c-0.55-1.4-1.44-2.92-2.67-4.57c-1.23-1.65-2.83-3.09-4.82-4.32c-1.99-1.23-4.3-1.84-6.92-1.84
		c-2.71,0-5.18,0.74-7.43,2.22c-2.24,1.48-4.01,3.6-5.3,6.35c-1.29,2.75-1.94,5.95-1.94,9.58c0,3.98,0.75,7.53,2.25,10.66
		c1.5,3.13,3.59,5.56,6.25,7.3c2.67,1.74,5.67,2.6,9.01,2.6c1.74,0,3.07-0.19,4-0.57c0.93-0.38,1.61-1.12,2.03-2.22
		c0.42-1.1,0.63-2.73,0.63-4.89c0-2.2-0.13-3.73-0.38-4.6c-0.25-0.87-0.79-1.45-1.62-1.75c-0.82-0.29-2.27-0.44-4.35-0.44
		c-0.25,0-0.38-0.17-0.38-0.51c0-0.13,0.03-0.24,0.09-0.35c0.06-0.11,0.14-0.16,0.22-0.16c3.6,0.21,6.52,0.32,8.76,0.32
		c2.16,0,4.4-0.06,6.73-0.19c0.17,0,0.26,0.15,0.29,0.45c0.02,0.3-0.07,0.44-0.29,0.44c-0.76-0.04-1.3,0.09-1.62,0.41
		c-0.32,0.32-0.52,0.96-0.6,1.94c-0.09,0.97-0.13,2.67-0.13,5.08c0,1.9,0.07,3.26,0.22,4.06c0.15,0.8,0.22,1.31,0.22,1.52
		c0,0.25-0.04,0.42-0.13,0.51s-0.28,0.17-0.57,0.25c-5.46,1.18-10.37,1.78-14.72,1.78C624.05,539.68,619.86,538.79,616.31,536.99z"
		/>
	<linearGradient id="SVGID_5_" gradientUnits="userSpaceOnUse" x1="496.1237" y1="677.5139" x2="781.2178" y2="410.7146">
		<stop  offset="0" style="stop-color:#EC008C"/>
		<stop  offset="1" style="stop-color:#2E3192"/>
	</linearGradient>
	<path class="st4" d="M680.28,528.71c0.13,0,0.24,0.03,0.35,0.09c0.11,0.06,0.16,0.12,0.16,0.16c-0.42,3.3-0.63,6.31-0.63,9.01
		c0,0.34-0.06,0.58-0.19,0.73c-0.13,0.15-0.38,0.22-0.76,0.22h-28.05c-0.13,0-0.19-0.13-0.19-0.38c0-0.25,0.06-0.38,0.19-0.38
		c1.35,0,2.34-0.11,2.95-0.32c0.61-0.21,1.03-0.62,1.24-1.24c0.21-0.61,0.32-1.56,0.32-2.82V504.4c0-1.27-0.11-2.2-0.32-2.79
		c-0.21-0.59-0.64-1-1.27-1.24s-1.61-0.35-2.92-0.35c-0.13,0-0.19-0.13-0.19-0.38s0.06-0.38,0.19-0.38h26.91
		c0.42,0,0.63,0.19,0.63,0.57l0.13,8.44c0,0.08-0.12,0.15-0.35,0.19c-0.23,0.04-0.37,0-0.41-0.13c-0.68-2.45-1.82-4.27-3.43-5.46
		c-1.61-1.18-3.72-1.78-6.35-1.78h-1.9c-1.27,0-2.2,0.28-2.79,0.83c-0.59,0.55-0.89,1.4-0.89,2.54v12.95h5.27
		c2.45,0,4.34-0.42,5.65-1.27c1.31-0.85,1.97-2.03,1.97-3.55c0-0.13,0.12-0.19,0.35-0.19c0.23,0,0.35,0.06,0.35,0.19l-0.06,5.71
		l0.06,3.05c0.08,1.44,0.13,2.58,0.13,3.43c0,0.09-0.13,0.13-0.38,0.13c-0.25,0-0.38-0.04-0.38-0.13c0-1.73-0.67-3.1-2-4.09
		c-1.33-0.99-3.25-1.49-5.74-1.49h-5.2v14.34c0,1.23,0.23,2.14,0.7,2.73c0.47,0.59,1.21,0.89,2.22,0.89h2.09
		c3.3,0,5.94-0.68,7.93-2.03c1.99-1.35,3.45-3.45,4.38-6.28C680.03,528.75,680.11,528.71,680.28,528.71z"/>
	<g>
		<linearGradient id="SVGID_6_" gradientUnits="userSpaceOnUse" x1="293.88" y1="461.402" x2="578.9741" y2="194.6028">
			<stop  offset="0" style="stop-color:#EC008C"/>
			<stop  offset="1" style="stop-color:#2E3192"/>
		</linearGradient>
		<path class="st5" d="M232.27,538.99c-0.68-0.04-1.51-0.08-2.51-0.13c-0.99-0.04-2.11-0.06-3.33-0.06l-4.7,0.06
			c-0.85,0.04-1.99,0.06-3.43,0.06c-0.08,0-0.13-0.13-0.13-0.38c0-0.25,0.04-0.38,0.13-0.38c1.35,0,2.35-0.11,2.98-0.32
			c0.63-0.21,1.07-0.62,1.3-1.24c0.23-0.61,0.35-1.56,0.35-2.82V504.4c0-1.27-0.12-2.2-0.35-2.79c-0.23-0.59-0.66-1-1.27-1.24
			c-0.61-0.23-1.58-0.35-2.89-0.35c-0.13,0-0.19-0.13-0.19-0.38s0.06-0.38,0.19-0.38l3.36,0.06c1.95,0.08,3.49,0.13,4.63,0.13
			c1.73,0,3.51-0.06,5.33-0.19c2.2-0.08,3.68-0.13,4.44-0.13c4.27,0,8.07,0.85,11.39,2.54c3.32,1.69,5.89,4,7.71,6.92
			c1.82,2.92,2.73,6.2,2.73,9.84c0,4.1-0.94,7.73-2.82,10.88c-1.88,3.15-4.42,5.59-7.62,7.3c-3.19,1.71-6.7,2.57-10.5,2.57
			C235.74,539.18,234.13,539.11,232.27,538.99z M243.63,535.65c2.07-1.37,3.69-3.42,4.86-6.12c1.16-2.71,1.75-5.94,1.75-9.71
			c0-3.6-0.55-6.86-1.65-9.81c-1.1-2.94-2.67-5.26-4.7-6.95c-2.03-1.69-4.38-2.54-7.05-2.54c-2.62,0-4.42,0.25-5.39,0.76
			c-0.97,0.51-1.46,1.59-1.46,3.24v28.56c0,1.69,0.44,2.89,1.33,3.59s2.6,1.05,5.14,1.05C239.17,537.72,241.56,537.03,243.63,535.65
			z"/>
		<linearGradient id="SVGID_7_" gradientUnits="userSpaceOnUse" x1="315.2507" y1="484.2382" x2="600.3448" y2="217.4389">
			<stop  offset="0" style="stop-color:#EC008C"/>
			<stop  offset="1" style="stop-color:#2E3192"/>
		</linearGradient>
		<path class="st6" d="M292.88,528.71c0.13,0,0.24,0.03,0.35,0.09c0.11,0.06,0.16,0.12,0.16,0.16c-0.42,3.3-0.63,6.31-0.63,9.01
			c0,0.34-0.06,0.58-0.19,0.73c-0.13,0.15-0.38,0.22-0.76,0.22h-28.05c-0.13,0-0.19-0.13-0.19-0.38c0-0.25,0.06-0.38,0.19-0.38
			c1.35,0,2.34-0.11,2.95-0.32c0.61-0.21,1.03-0.62,1.24-1.24c0.21-0.61,0.32-1.56,0.32-2.82V504.4c0-1.27-0.11-2.2-0.32-2.79
			c-0.21-0.59-0.64-1-1.27-1.24s-1.61-0.35-2.92-0.35c-0.13,0-0.19-0.13-0.19-0.38s0.06-0.38,0.19-0.38h26.91
			c0.42,0,0.63,0.19,0.63,0.57l0.13,8.44c0,0.08-0.12,0.15-0.35,0.19c-0.23,0.04-0.37,0-0.41-0.13c-0.68-2.45-1.82-4.27-3.43-5.46
			c-1.61-1.18-3.72-1.78-6.35-1.78h-1.9c-1.27,0-2.2,0.28-2.79,0.83c-0.59,0.55-0.89,1.4-0.89,2.54v12.95h5.27
			c2.45,0,4.34-0.42,5.65-1.27c1.31-0.85,1.97-2.03,1.97-3.55c0-0.13,0.12-0.19,0.35-0.19c0.23,0,0.35,0.06,0.35,0.19l-0.06,5.71
			l0.06,3.05c0.08,1.44,0.13,2.58,0.13,3.43c0,0.09-0.13,0.13-0.38,0.13c-0.25,0-0.38-0.04-0.38-0.13c0-1.73-0.67-3.1-2-4.09
			c-1.33-0.99-3.25-1.49-5.74-1.49h-5.2v14.34c0,1.23,0.23,2.14,0.7,2.73c0.47,0.59,1.21,0.89,2.22,0.89h2.09
			c3.3,0,5.94-0.68,7.93-2.03c1.99-1.35,3.45-3.45,4.38-6.28C292.63,528.75,292.71,528.71,292.88,528.71z"/>
		<linearGradient id="SVGID_8_" gradientUnits="userSpaceOnUse" x1="331.6971" y1="501.8123" x2="616.7912" y2="235.013">
			<stop  offset="0" style="stop-color:#EC008C"/>
			<stop  offset="1" style="stop-color:#2E3192"/>
		</linearGradient>
		<path class="st7" d="M308.4,509.73c0.78,1.19,1.75,2.22,2.89,3.11c1.14,0.89,2.69,1.97,4.63,3.24c2.12,1.35,3.81,2.54,5.08,3.55
			c1.27,1.02,2.35,2.25,3.24,3.71c0.89,1.46,1.33,3.14,1.33,5.04c0,2.2-0.59,4.16-1.78,5.87s-2.82,3.05-4.92,4
			c-2.09,0.95-4.43,1.43-7.01,1.43c-1.9,0-3.89-0.26-5.97-0.79c-2.07-0.53-3.47-1.11-4.19-1.75c-0.21-0.17-0.37-0.33-0.48-0.48
			c-0.11-0.15-0.16-0.39-0.16-0.73l-0.19-10.09v-0.06c0-0.17,0.11-0.26,0.32-0.29c0.21-0.02,0.34,0.05,0.38,0.22
			c1.27,2.58,2.38,4.68,3.33,6.28c0.95,1.61,2.16,3.03,3.62,4.25c1.46,1.23,3.12,1.84,4.98,1.84c1.69,0,3.09-0.45,4.19-1.36
			c1.1-0.91,1.65-2.47,1.65-4.66c0-1.86-0.41-3.49-1.24-4.89c-0.83-1.4-1.83-2.58-3.01-3.56c-1.19-0.97-2.81-2.14-4.89-3.49
			c-2.03-1.31-3.61-2.43-4.73-3.36c-1.12-0.93-2.09-2.05-2.89-3.36c-0.8-1.31-1.21-2.86-1.21-4.63c0-2.24,0.64-4.14,1.94-5.68
			c1.29-1.54,2.95-2.69,4.98-3.43c2.03-0.74,4.17-1.11,6.41-1.11c1.48,0,2.98,0.14,4.51,0.41c1.52,0.27,2.75,0.6,3.68,0.98
			c0.38,0.17,0.63,0.35,0.76,0.54c0.13,0.19,0.19,0.43,0.19,0.73v9.33c0,0.13-0.11,0.22-0.32,0.29c-0.21,0.06-0.34,0.03-0.38-0.09
			l-0.51-1.21c-1.06-2.67-2.3-4.93-3.71-6.79c-1.42-1.86-3.4-2.79-5.93-2.79c-1.69,0-3.08,0.49-4.16,1.46
			c-1.08,0.97-1.62,2.39-1.62,4.25C307.22,507.19,307.62,508.54,308.4,509.73z"/>
		<linearGradient id="SVGID_9_" gradientUnits="userSpaceOnUse" x1="353.8017" y1="525.4327" x2="638.8958" y2="258.6334">
			<stop  offset="0" style="stop-color:#EC008C"/>
			<stop  offset="1" style="stop-color:#2E3192"/>
		</linearGradient>
		<path class="st8" d="M375.45,528.71c0.13,0,0.24,0.03,0.35,0.09c0.11,0.06,0.16,0.12,0.16,0.16c-0.42,3.3-0.63,6.31-0.63,9.01
			c0,0.34-0.06,0.58-0.19,0.73c-0.13,0.15-0.38,0.22-0.76,0.22h-28.05c-0.13,0-0.19-0.13-0.19-0.38c0-0.25,0.06-0.38,0.19-0.38
			c1.35,0,2.34-0.11,2.95-0.32c0.61-0.21,1.03-0.62,1.24-1.24c0.21-0.61,0.32-1.56,0.32-2.82V504.4c0-1.27-0.11-2.2-0.32-2.79
			c-0.21-0.59-0.64-1-1.27-1.24s-1.61-0.35-2.92-0.35c-0.13,0-0.19-0.13-0.19-0.38s0.06-0.38,0.19-0.38h26.91
			c0.42,0,0.63,0.19,0.63,0.57l0.13,8.44c0,0.08-0.12,0.15-0.35,0.19c-0.23,0.04-0.37,0-0.41-0.13c-0.68-2.45-1.82-4.27-3.43-5.46
			c-1.61-1.18-3.72-1.78-6.35-1.78h-1.9c-1.27,0-2.2,0.28-2.79,0.83c-0.59,0.55-0.89,1.4-0.89,2.54v12.95h5.27
			c2.45,0,4.34-0.42,5.65-1.27c1.31-0.85,1.97-2.03,1.97-3.55c0-0.13,0.12-0.19,0.35-0.19c0.23,0,0.35,0.06,0.35,0.19l-0.06,5.71
			l0.06,3.05c0.08,1.44,0.13,2.58,0.13,3.43c0,0.09-0.13,0.13-0.38,0.13c-0.25,0-0.38-0.04-0.38-0.13c0-1.73-0.67-3.1-2-4.09
			c-1.33-0.99-3.25-1.49-5.74-1.49h-5.2v14.34c0,1.23,0.23,2.14,0.7,2.73c0.47,0.59,1.21,0.89,2.22,0.89h2.09
			c3.3,0,5.94-0.68,7.93-2.03c1.99-1.35,3.45-3.45,4.38-6.28C375.2,528.75,375.28,528.71,375.45,528.71z"/>
		<linearGradient id="SVGID_10_" gradientUnits="userSpaceOnUse" x1="372.0049" y1="544.8841" x2="657.0991" y2="278.0848">
			<stop  offset="0" style="stop-color:#EC008C"/>
			<stop  offset="1" style="stop-color:#2E3192"/>
		</linearGradient>
		<path class="st9" d="M419.82,538.54c0,0.25-0.06,0.38-0.19,0.38c-1.23,0-2.18-0.02-2.86-0.06l-3.81-0.06l-5.2,0.06
			c-0.8,0.04-1.93,0.06-3.36,0.06c-0.13,0-0.19-0.13-0.19-0.38c0-0.25,0.06-0.38,0.19-0.38c1.4,0,2.09-0.36,2.09-1.08
			c0-0.38-0.19-0.85-0.57-1.4l-8.7-13.46l-5.46,7.81c-1.65,2.33-2.48,4.21-2.48,5.65c0,1.65,1.1,2.48,3.3,2.48
			c0.08,0,0.13,0.13,0.13,0.38c0,0.25-0.04,0.38-0.13,0.38c-1.4,0-2.45-0.02-3.17-0.06l-4.7-0.06l-2.98,0.06
			c-0.55,0.04-1.44,0.06-2.67,0.06c-0.13,0-0.19-0.13-0.19-0.38c0-0.25,0.06-0.38,0.19-0.38c1.31,0,2.92-0.7,4.82-2.1
			c1.9-1.4,3.89-3.53,5.97-6.41l6.47-8.76l-10.15-15.8c-1.14-1.82-2.24-3.12-3.3-3.9c-1.06-0.78-2.18-1.17-3.36-1.17
			c-0.13,0-0.19-0.13-0.19-0.38s0.06-0.38,0.19-0.38l2.73,0.06c1.18,0.08,2.07,0.13,2.67,0.13c1.48,0,3.32-0.04,5.52-0.13l3.62-0.06
			c0.08,0,0.13,0.13,0.13,0.38s-0.04,0.38-0.13,0.38c-1.44,0-2.16,0.36-2.16,1.08c0,0.34,0.19,0.83,0.57,1.46l8.38,12.88l5.08-7.24
			c1.65-2.37,2.48-4.27,2.48-5.71c0-1.65-1.1-2.47-3.3-2.47c-0.08,0-0.13-0.13-0.13-0.38s0.04-0.38,0.13-0.38l3.17,0.06
			c1.69,0.08,3.26,0.13,4.7,0.13c0.89,0,1.88-0.04,2.98-0.13l2.67-0.06c0.13,0,0.19,0.13,0.19,0.38s-0.06,0.38-0.19,0.38
			c-1.35,0-2.97,0.71-4.85,2.12c-1.88,1.42-3.88,3.57-6,6.44l-6.03,8.25l10.85,16.82c1.06,1.57,2.14,2.71,3.24,3.43
			c1.1,0.72,2.37,1.08,3.81,1.08C419.75,538.16,419.82,538.29,419.82,538.54z"/>
		<linearGradient id="SVGID_11_" gradientUnits="userSpaceOnUse" x1="393.0955" y1="567.4209" x2="678.1896" y2="300.6216">
			<stop  offset="0" style="stop-color:#EC008C"/>
			<stop  offset="1" style="stop-color:#2E3192"/>
		</linearGradient>
		<path class="st10" d="M451.52,499.03c2.05,0.32,3.69,0.73,4.92,1.24c0.38,0.13,0.62,0.28,0.73,0.47c0.11,0.19,0.18,0.52,0.22,0.98
			l0.83,8.82c0,0.13-0.11,0.21-0.32,0.25c-0.21,0.04-0.36-0.02-0.44-0.19c-1.18-3.47-2.88-6.13-5.08-7.97
			c-2.2-1.84-4.85-2.76-7.93-2.76c-2.88,0-5.45,0.77-7.71,2.32c-2.26,1.55-4.04,3.75-5.33,6.63c-1.29,2.88-1.94,6.24-1.94,10.09
			c0,3.89,0.67,7.31,2,10.25c1.33,2.94,3.17,5.2,5.52,6.79c2.35,1.59,5.05,2.38,8.09,2.38c2.92,0,5.37-0.79,7.36-2.38
			c1.99-1.59,3.87-4.2,5.65-7.84c0.04-0.13,0.17-0.17,0.38-0.13c0.21,0.04,0.32,0.13,0.32,0.25l-0.95,7.87
			c-0.09,0.51-0.17,0.84-0.25,0.98c-0.08,0.15-0.32,0.31-0.7,0.47c-3.89,1.4-7.83,2.09-11.8,2.09c-4.53,0-8.58-0.86-12.15-2.57
			c-3.58-1.71-6.38-4.12-8.41-7.2c-2.03-3.09-3.05-6.6-3.05-10.53c0-4.02,1.05-7.61,3.14-10.76s4.97-5.62,8.63-7.39
			c3.66-1.78,7.73-2.67,12.22-2.67C447.44,498.56,449.46,498.72,451.52,499.03z"/>
		<linearGradient id="SVGID_12_" gradientUnits="userSpaceOnUse" x1="412.2747" y1="587.9152" x2="697.3688" y2="321.1159">
			<stop  offset="0" style="stop-color:#EC008C"/>
			<stop  offset="1" style="stop-color:#2E3192"/>
		</linearGradient>
		<path class="st11" d="M508.22,538.54c0,0.25-0.06,0.38-0.19,0.38c-1.48,0-2.67-0.02-3.55-0.06l-4.89-0.06l-5.71,0.06
			c-0.76,0.04-1.8,0.06-3.11,0.06c-0.13,0-0.19-0.13-0.19-0.38c0-0.25,0.06-0.38,0.19-0.38c1.56,0,2.71-0.11,3.43-0.32
			c0.72-0.21,1.21-0.61,1.46-1.2c0.25-0.59,0.38-1.55,0.38-2.86v-14.6h-20.5v14.6c0,1.27,0.13,2.21,0.38,2.82
			c0.25,0.61,0.74,1.03,1.46,1.24c0.72,0.21,1.86,0.32,3.43,0.32c0.08,0,0.13,0.13,0.13,0.38c0,0.25-0.04,0.38-0.13,0.38
			c-1.48,0-2.67-0.02-3.55-0.06l-5.52-0.06l-4.76,0.06c-0.85,0.04-2.01,0.06-3.49,0.06c-0.08,0-0.13-0.13-0.13-0.38
			c0-0.25,0.04-0.38,0.13-0.38c1.48,0,2.56-0.11,3.24-0.32c0.68-0.21,1.14-0.62,1.4-1.24s0.38-1.56,0.38-2.82V504.4
			c0-1.27-0.13-2.2-0.38-2.79c-0.25-0.59-0.71-1-1.36-1.24c-0.66-0.23-1.7-0.35-3.14-0.35c-0.13,0-0.19-0.13-0.19-0.38
			s0.06-0.38,0.19-0.38l3.43,0.06c1.95,0.08,3.51,0.13,4.7,0.13c1.61,0,3.47-0.04,5.59-0.13l3.49-0.06c0.08,0,0.13,0.13,0.13,0.38
			s-0.04,0.38-0.13,0.38c-1.52,0-2.65,0.13-3.36,0.38c-0.72,0.25-1.22,0.69-1.49,1.3c-0.28,0.62-0.41,1.56-0.41,2.82v12.88h20.5
			v-12.88c0-1.27-0.13-2.21-0.38-2.82c-0.25-0.61-0.74-1.05-1.46-1.3c-0.72-0.25-1.86-0.38-3.43-0.38c-0.13,0-0.19-0.13-0.19-0.38
			s0.06-0.38,0.19-0.38l3.11,0.06c2.12,0.08,4.02,0.13,5.71,0.13c1.14,0,2.77-0.04,4.89-0.13l3.55-0.06c0.13,0,0.19,0.13,0.19,0.38
			s-0.06,0.38-0.19,0.38c-1.44,0-2.51,0.12-3.21,0.35s-1.16,0.65-1.4,1.24c-0.23,0.59-0.35,1.52-0.35,2.79v29.39
			c0,1.27,0.12,2.21,0.35,2.82c0.23,0.61,0.69,1.03,1.36,1.24c0.68,0.21,1.75,0.32,3.24,0.32
			C508.16,538.16,508.22,538.29,508.22,538.54z"/>
		<linearGradient id="SVGID_13_" gradientUnits="userSpaceOnUse" x1="439.2657" y1="616.7571" x2="724.3598" y2="349.9578">
			<stop  offset="0" style="stop-color:#EC008C"/>
			<stop  offset="1" style="stop-color:#2E3192"/>
		</linearGradient>
		<path class="st12" d="M555.89,538.54c0,0.25-0.11,0.38-0.32,0.38c-0.85,0-2.16-0.04-3.93-0.13c-1.86-0.08-3.19-0.13-4-0.13
			c-1.06,0-2.35,0.04-3.87,0.13c-1.44,0.08-2.58,0.13-3.43,0.13c-0.17,0-0.25-0.13-0.25-0.38c0-0.25,0.08-0.38,0.25-0.38
			c1.1,0,1.89-0.12,2.38-0.35c0.49-0.23,0.73-0.65,0.73-1.24c0-0.72-0.42-1.92-1.27-3.62l-4.32-8.57h-15.61l-2.48,5.52
			c-0.55,1.23-0.82,2.37-0.82,3.43c0,1.52,0.54,2.71,1.62,3.55c1.08,0.85,2.53,1.27,4.35,1.27c0.21,0,0.32,0.13,0.32,0.38
			c0,0.25-0.11,0.38-0.32,0.38c-0.76,0-1.86-0.04-3.3-0.13c-1.61-0.08-3.01-0.13-4.19-0.13c-1.14,0-2.52,0.04-4.13,0.13
			c-1.44,0.08-2.6,0.13-3.49,0.13c-0.17,0-0.25-0.13-0.25-0.38c0-0.25,0.08-0.38,0.25-0.38c1.18,0,2.18-0.24,2.98-0.73
			c0.8-0.49,1.61-1.35,2.41-2.6c0.8-1.25,1.76-3.1,2.86-5.55L531.83,499c0.08-0.13,0.27-0.19,0.57-0.19c0.34,0,0.53,0.06,0.57,0.19
			l15.87,31.23c1.48,3,2.71,5.08,3.68,6.22c0.97,1.14,1.99,1.71,3.05,1.71C555.78,538.16,555.89,538.29,555.89,538.54z
			 M523.08,522.61h13.84l-7.3-14.47L523.08,522.61z"/>
		<g id="XMLID_6_">
			<g>
				<linearGradient id="SVGID_14_" gradientUnits="userSpaceOnUse" x1="280.075" y1="446.6503" x2="565.169" y2="179.8511">
					<stop  offset="0" style="stop-color:#EC008C"/>
					<stop  offset="1" style="stop-color:#2E3192"/>
				</linearGradient>
				<path class="st13" d="M600.43,173.11c0.39,0.55-0.15,1.52-0.86,1.28c-6.63-2.21-13.7-1.09-20.35-3.65
					c-3.95-1.53-7.61-3.65-11.13-5.99c4.06,4.47,7.7,9.35,10.85,14.57l-1.43,0.86c-4.97-8.18-11.16-15.52-18.27-21.79l1.11-1.25
					c0.46,0.4,0.91,0.8,1.35,1.21c0.08-0.16,0.21-0.29,0.39-0.38C576.06,151.08,592.38,161.84,600.43,173.11z"/>
				<linearGradient id="SVGID_15_" gradientUnits="userSpaceOnUse" x1="314.6291" y1="483.574" x2="599.7232" y2="216.7747">
					<stop  offset="0" style="stop-color:#EC008C"/>
					<stop  offset="1" style="stop-color:#2E3192"/>
				</linearGradient>
				<path class="st14" d="M567.33,220.58c0.11,0.37,0.24,0.73,0.36,1.09c0.27,1.49,0.5,2.99,0.72,4.49
					c0.83,0.76,1.51,1.73,1.92,2.95c-0.04-0.35-0.07-0.71-0.12-1.07c4.72,10.1,12.29,18.58,21.91,24.51c0.52,0.32,1.3-0.2,1.21-0.8
					c-2.09-14.64-11.18-27.34-24.39-34c-0.18-0.1-0.35-0.1-0.51-0.07l-1.47,0.34c0.14,0.65,0.28,1.3,0.41,1.95
					C567.29,220.15,567.25,220.35,567.33,220.58z"/>
				<linearGradient id="SVGID_16_" gradientUnits="userSpaceOnUse" x1="297.4065" y1="465.1704" x2="582.5006" y2="198.3711">
					<stop  offset="0" style="stop-color:#EC008C"/>
					<stop  offset="1" style="stop-color:#2E3192"/>
				</linearGradient>
				<path class="st15" d="M581.25,184.15c8.11,8.7,9.18,21.08,6.26,32.22c-0.17,0.68-1.09,0.9-1.51,0.3
					c-6.58-9.57-12.42-21.72-6.43-32.93c-0.66-1.2-1.35-2.39-2.06-3.56l1.43-0.86c0.66,1.08,1.31,2.2,1.92,3.32
					c0.49,0.1,0.91,0.58,0.57,1.15C581.37,183.9,581.31,184.02,581.25,184.15z"/>
				<linearGradient id="SVGID_17_" gradientUnits="userSpaceOnUse" x1="270.6973" y1="436.6296" x2="555.7914" y2="169.8304">
					<stop  offset="0" style="stop-color:#EC008C"/>
					<stop  offset="1" style="stop-color:#2E3192"/>
				</linearGradient>
				<path class="st16" d="M539.15,145.22c0.16-0.03,0.31-0.1,0.46-0.13c2.55,1.29,5.03,2.69,7.44,4.2l0.87-1.41
					c11.83,2.12,23.35-4.11,31.55-12.96c0.47-0.51,0.11-1.18-0.46-1.37c-12.75-4.27-26.85-1.24-36.83,7.61
					c-0.25-0.07-0.54-0.02-0.76,0.24c-0.56,0.64-1.12,1.28-1.68,1.92c-4.23-2.1-8.6-3.92-13.13-5.39c-0.11-0.03-0.21-0.04-0.3-0.03
					l-1.22,0.96c4.76,6.06,9.17,12.42,13.34,18.88c-0.45-0.01-0.88,0.26-0.77,0.83c0.63,3.38-2.98,7.8-4.01,11.06
					c-1.05,3.33-1.57,6.81-1.59,10.31c-0.05,6.84,1.92,13.44,5.57,19.21c0.36,0.57,1.42,0.43,1.5-0.3c0.83-7.51,4.4-14.36,5.06-21.9
					c0.33-3.81,0.05-7.58-0.75-11.25c1.45,2.36,2.88,4.72,4.29,7.07c3.17,5.32,6.14,10.74,8.84,16.29
					c-0.08,0.19-0.16,0.37-0.24,0.56c0.56,0.72,1.02,1.53,1.3,2.45c0.02-0.1,0.05-0.21,0.08-0.32c0.03-0.12,0.02-0.23,0-0.33
					c3.97,8.52,7.2,17.35,9.24,26.59l1.47-0.34c-1.73-8.07-4.26-16.01-7.67-23.71c-5.28-11.95-11.95-23.36-19.14-34.34
					c-0.32-0.81-0.65-1.6-1.02-2.39c-0.18-0.39-0.54-0.52-0.88-0.5c-1.69-2.54-3.41-5.05-5.14-7.55c-2.11-3.05-4.3-6.06-6.54-9.02
					c3.42,1.18,6.76,2.57,10,4.13C538.05,144.8,538.5,145.36,539.15,145.22z M540.13,160.37c2.33,6.06,3.16,12.56,2.1,19.05
					c-0.94,5.74-3.32,11.08-4.37,16.79c-3.31-6.1-4.71-13.03-3.9-19.99c0.41-3.53,1.36-7,2.89-10.21c1.1-2.32,2.69-4.22,2.57-6.74
					C539.66,159.63,539.89,160,540.13,160.37z"/>
				<linearGradient id="SVGID_18_" gradientUnits="userSpaceOnUse" x1="331.8581" y1="501.9843" x2="616.9521" y2="235.185">
					<stop  offset="0" style="stop-color:#EC008C"/>
					<stop  offset="1" style="stop-color:#2E3192"/>
				</linearGradient>
				<path class="st17" d="M563.18,293.39c-0.61,0.26-1.25,0.44-1.89,0.53c-0.1,0.3-0.19,0.6-0.29,0.9
					c-0.15-0.19-0.36-0.33-0.67-0.32c-13.08,0.33-24.94,8.3-30.17,20.3c-0.23,0.55,0.14,1.29,0.8,1.21
					c11.31-1.35,21.38-7.17,28.19-16.1c-3.94,10.37-8.9,20.39-14.68,29.87c-0.03-0.01-0.05-0.02-0.08-0.03
					c-8.34-1.26-16.73-1.21-24.91,0.09c0.05-0.19,0.03-0.39-0.11-0.59c-6.14-9.6-15.25-18.65-27.61-16.94
					c-0.53,0.07-0.92,0.56-0.74,1.1c3.19,9.06,10.62,15.79,19.58,18.36c-6.76,1.87-13.3,4.6-19.45,8.2
					c-0.08-0.23-0.26-0.42-0.58-0.46c-12.44-1.6-19.48,9.6-24.51,19.15c-0.28,0.53,0.17,1.28,0.8,1.2
					c11.28-1.53,20.98-8.13,26.55-18.05c0.25-0.45,0.04-0.85-0.3-1.04c6.66-3.76,13.77-6.51,21.12-8.22c1.15,0.18,2.3,0.3,3.48,0.34
					c0.69,0.02,0.88-0.67,0.63-1.18c2.14-0.38,4.29-0.66,6.45-0.86c-11.35,4.29-19.65,14.99-20.69,27.26
					c-0.07,0.85,0.8,1.31,1.44,0.73c2.66-2.45,6.2-3.01,9.15-4.94c2.17-1.41,3.82-3.38,5.32-5.46c3.91-5.42,7.12-11.36,9.9-17.44
					c0.16-0.11,0.23-0.28,0.25-0.47c4.44-0.12,8.92,0.13,13.37,0.77c-4.91,7.86-10.4,15.33-16.4,22.29
					c-10.21,11.87-22.15,21.33-35.18,28.53c0.14-0.37,0.08-0.83-0.34-1.1c-12.43-7.79-27.61-9.64-41.56-5.17
					c-0.61,0.2-0.73,1-0.28,1.41c10.24,9.39,24.16,9.3,37.14,7.5c-16.88,8.41-35.43,13.21-54.39,14.72l-0.13-0.19
					c0.2-0.2,0.31-0.48,0.18-0.83c-4.28-11.6-12.4-21.11-23.17-27.18c-0.42-0.24-1.15,0.04-1.19,0.57
					c-0.94,13.25,8.17,22.74,19.29,27.95c-8.48,0.41-17.02,0.16-25.52-0.7l-0.19,1.73c9.91,1.07,19.9,1.32,29.8,0.66
					c0.25,0.08,0.5,0.18,0.74,0.26c0.37,0.14,0.69-0.07,0.85-0.37c13.46-1.03,26.72-3.71,39.34-8.21c-0.14,1.59-3.79,4.87-7.47,7.8
					c-0.58-0.65-1.69,0.14-1.29,0.98c-0.02,0.03-0.03,0.04-0.05,0.07c-1.38,1.06-2.69,2.05-3.76,2.83l0.98,1.3
					c0.08-0.06,0.15-0.12,0.23-0.17c-5.9,10.43-6.84,23.08-2.23,34.34c0.33,0.79,1.37,0.69,1.61-0.1c1.17-3.94,4.29-6.9,6.05-10.58
					c1.47-3.08,2.39-6.44,2.74-9.84c0.62-6.14-0.64-12.18-3.53-17.58c2.26-1.91,4.5-3.88,6.54-6.01c1.17-1.23,2.21-2.24,1.82-3.65
					c13.39-4.97,26.03-12,37.34-21.29c0.59-0.49,1.19-0.99,1.77-1.49c-5.5,7.49-8.18,16.77-7.32,26.27c0.06,0.66,1,1.11,1.45,0.49
					c7.25-9.72,14.61-20.26,13.23-33c-0.02-0.14-0.06-0.26-0.12-0.36C540.06,344.12,554.63,319.09,563.18,293.39z M532.34,314.12
					c5.18-10.47,15.66-17.36,27.37-17.91C553.56,305.85,543.62,312.34,532.34,314.12z M468.34,357.93
					c4.55-8.45,10.9-18.16,21.81-16.8c0.12,0.5,0.7,0.93,1.29,0.59c0.04-0.03,0.08-0.06,0.13-0.08
					C486.52,350.23,478.1,356.13,468.34,357.93z M514.13,330.87c-9.47-1.54-17.57-8.02-21.15-17.04
					c11.18-0.94,19.32,7.47,24.97,16.27C516.67,330.32,515.4,330.58,514.13,330.87z M518.02,348.35c-2.34,3.01-4.92,4.6-8.39,6.12
					c-1.32,0.58-2.52,1.17-3.66,1.94c1.8-11.74,10.39-21.52,21.82-24.8C525.07,337.43,521.95,343.28,518.02,348.35z M429.97,398.72
					c0.13,0.18,0.25,0.37,0.38,0.55c-10.94-4.45-20.79-13.25-20.56-25.81c9.34,5.6,16.51,13.95,20.61,24.05
					C429.95,397.68,429.62,398.2,429.97,398.72z M490.85,382.73c-0.13-0.11-0.32-0.17-0.56-0.14c-13,2.08-27.53,3.27-38.26-5.57
					c13.16-3.78,27.19-1.79,38.84,5.51c0.06,0.04,0.13,0.07,0.19,0.09C490.99,382.65,490.92,382.69,490.85,382.73z"/>
				<linearGradient id="SVGID_19_" gradientUnits="userSpaceOnUse" x1="267.8185" y1="433.5534" x2="552.9125" y2="166.7541">
					<stop  offset="0" style="stop-color:#EC008C"/>
					<stop  offset="1" style="stop-color:#2E3192"/>
				</linearGradient>
				<path class="st18" d="M560.35,157.14l-1.11,1.25c3.49,7.21,3.07,15.51,2.44,23.46c-0.06,0.77-1.12,0.79-1.51,0.3
					c-5.96-7.75-12.63-17.91-6.7-27.6c0.15-0.24,0.37-0.37,0.6-0.4c-2.27-1.73-4.61-3.34-7.02-4.85l0.87-1.41
					C552.32,150.63,556.47,153.72,560.35,157.14z"/>
				<linearGradient id="SVGID_20_" gradientUnits="userSpaceOnUse" x1="333.3793" y1="503.6099" x2="618.4734" y2="236.8106">
					<stop  offset="0" style="stop-color:#EC008C"/>
					<stop  offset="1" style="stop-color:#2E3192"/>
				</linearGradient>
				<path class="st19" d="M532.34,314.12c5.18-10.47,15.66-17.36,27.37-17.91C553.56,305.85,543.62,312.34,532.34,314.12z"/>
				<linearGradient id="SVGID_21_" gradientUnits="userSpaceOnUse" x1="232.5976" y1="395.9174" x2="517.6917" y2="129.1181">
					<stop  offset="0" style="stop-color:#EC008C"/>
					<stop  offset="1" style="stop-color:#2E3192"/>
				</linearGradient>
				<path class="st20" d="M541.47,128.56c0.32,0.47,0.07,1.05-0.42,1.25c-5.76,2.42-13.17-0.22-18.65-2.47
					c-4.31-1.78-8.29-4.16-11.91-7.04c5.73,5.41,10.97,11.36,15.82,17.59l-1.22,0.96c-10.35-13.17-22.31-24.9-36.94-32.94
					c0.53,3.82,1.35,7.55,2.43,11.21c0.22-0.16,0.52-0.22,0.78-0.14c0.01-0.48,0.36-0.93,0.94-0.74
					c10.48,3.48,18.81,10.79,23.61,20.73c0.33,0.67-0.57,1.34-1.16,1.02c-5.3-2.83-11.03-3.47-15.84-7.34
					c-2.53-2.04-4.59-4.49-6.18-7.24c4.41,11.41,11.46,21.72,20.68,30.03c0.07,0,0.13-0.01,0.21,0.02
					c12.09,3.88,11.92,17.83,10.84,28.21c-0.06,0.6-0.95,0.89-1.37,0.45c-4.96-5.2-10.18-10.77-11.47-18.11
					c-0.27-1.54-0.37-3.1-0.22-4.66c0.12-1.4,1.1-3.08,0.72-4.41c-0.41-1.46-2.93-3.13-4.03-4.27c-1.14-1.18-2.24-2.39-3.31-3.65
					c-3.15-3.68-5.93-7.64-8.32-11.81c2.54,9.01,0.49,19.44-0.18,28.48c-0.04,0.61-0.96,0.87-1.37,0.46
					c-9.44-9.84-10.4-24.33-2.38-35.34c0.15-0.19,0.32-0.27,0.49-0.3c-3.4-7.44-5.66-15.4-6.69-23.58
					c-1.11-0.57-2.23-1.13-3.36-1.67l0.65-1.39c6.65,3.11,13,6.9,18.9,11.53c1.19,0.93,2.36,1.9,3.51,2.88
					c-0.48-0.48-0.96-0.97-1.43-1.47c-0.04-0.04-0.06-0.08-0.09-0.12c-1.44-0.92-0.42-2.08,0.83-2.54
					c3.67-1.39,9.61-0.22,13.29,0.65C527.96,115.03,536.09,120.65,541.47,128.56z M522.99,179.61c0.8-8.88,0.68-20.49-8.86-24.21
					C510.35,164.7,516.87,173.05,522.99,179.61z M501.38,130.4c3.64,2.53,7.89,3.39,11.87,5.05c-4.64-8.29-12.15-14.52-21.22-17.54
					C493.81,122.97,496.94,127.32,501.38,130.4z M494.79,161.54c0.9-9.89,3.09-21.53-1.78-30.48
					C486.74,140.64,487.48,152.81,494.79,161.54z"/>
				<linearGradient id="SVGID_22_" gradientUnits="userSpaceOnUse" x1="266.6367" y1="432.2906" x2="551.7308" y2="165.4914">
					<stop  offset="0" style="stop-color:#EC008C"/>
					<stop  offset="1" style="stop-color:#2E3192"/>
				</linearGradient>
				<path class="st21" d="M540.13,160.37c2.33,6.06,3.16,12.56,2.1,19.05c-0.94,5.74-3.32,11.08-4.37,16.79
					c-3.31-6.1-4.71-13.03-3.9-19.99c0.41-3.53,1.36-7,2.89-10.21c1.1-2.32,2.69-4.22,2.57-6.74
					C539.66,159.63,539.89,160,540.13,160.37z"/>
				<linearGradient id="SVGID_23_" gradientUnits="userSpaceOnUse" x1="252.1541" y1="416.8149" x2="537.2482" y2="150.0156">
					<stop  offset="0" style="stop-color:#EC008C"/>
					<stop  offset="1" style="stop-color:#2E3192"/>
				</linearGradient>
				<path class="st22" d="M514.13,155.4c9.54,3.71,9.66,15.33,8.86,24.21C516.87,173.05,510.35,164.7,514.13,155.4z"/>
				<linearGradient id="SVGID_24_" gradientUnits="userSpaceOnUse" x1="186.6907" y1="346.8625" x2="471.7848" y2="80.0633">
					<stop  offset="0" style="stop-color:#EC008C"/>
					<stop  offset="1" style="stop-color:#2E3192"/>
				</linearGradient>
				<path class="st23" d="M507.84,68.64c0.39,0.18,0.6,0.74,0.37,1.12c-2.89,4.85-8.56,5.92-13.78,6.53
					c-6.12,0.72-12.25,0.48-18.27-0.59c3.44,1.33,6.71,2.88,9.65,4.62l-0.84,1.43c-8.3-4.86-19.09-8.37-29.74-9.01l0.1-1.65
					c4.74,0.28,9.5,1.12,14.07,2.38c0-0.04-0.01-0.08,0.01-0.13c-0.64-0.09-1.07-1.03-0.38-1.51
					C480.47,63.92,495.27,62.72,507.84,68.64z"/>
				<linearGradient id="SVGID_25_" gradientUnits="userSpaceOnUse" x1="204.6578" y1="366.0618" x2="489.7519" y2="99.2625">
					<stop  offset="0" style="stop-color:#EC008C"/>
					<stop  offset="1" style="stop-color:#2E3192"/>
				</linearGradient>
				<path class="st24" d="M509.51,102.76c0.23,0.65-0.36,1.13-0.96,1.09c-11.89-0.95-21.69-10.16-23.6-21.87
					c-0.01-0.08,0-0.15,0.01-0.22l0.84-1.43c0.55,0.32,1.08,0.64,1.61,0.97c0.16-0.05,0.35-0.07,0.55,0
					C498.07,84.85,505.89,92.68,509.51,102.76z"/>
				<linearGradient id="SVGID_26_" gradientUnits="userSpaceOnUse" x1="339.1728" y1="509.8006" x2="624.2668" y2="243.0013">
					<stop  offset="0" style="stop-color:#EC008C"/>
					<stop  offset="1" style="stop-color:#2E3192"/>
				</linearGradient>
				<path class="st25" d="M527.8,331.6c-2.72,5.83-5.85,11.67-9.77,16.74c-2.34,3.01-4.92,4.6-8.39,6.12
					c-1.32,0.58-2.52,1.17-3.66,1.94C507.78,344.66,516.37,334.88,527.8,331.6z"/>
				<linearGradient id="SVGID_27_" gradientUnits="userSpaceOnUse" x1="224.3553" y1="387.1099" x2="509.4494" y2="120.3106">
					<stop  offset="0" style="stop-color:#EC008C"/>
					<stop  offset="1" style="stop-color:#2E3192"/>
				</linearGradient>
				<path class="st26" d="M513.25,135.45c-3.98-1.66-8.24-2.52-11.87-5.05c-4.44-3.08-7.57-7.43-9.34-12.49
					C501.11,120.93,508.61,127.16,513.25,135.45z"/>
				<linearGradient id="SVGID_28_" gradientUnits="userSpaceOnUse" x1="323.0997" y1="492.6254" x2="608.1938" y2="225.8261">
					<stop  offset="0" style="stop-color:#EC008C"/>
					<stop  offset="1" style="stop-color:#2E3192"/>
				</linearGradient>
				<path class="st27" d="M517.95,330.1c-1.28,0.22-2.55,0.48-3.82,0.77c-9.47-1.54-17.57-8.02-21.15-17.04
					C504.16,312.89,512.3,321.3,517.95,330.1z"/>
				<linearGradient id="SVGID_29_" gradientUnits="userSpaceOnUse" x1="230.0648" y1="393.211" x2="515.1589" y2="126.4117">
					<stop  offset="0" style="stop-color:#EC008C"/>
					<stop  offset="1" style="stop-color:#2E3192"/>
				</linearGradient>
				<path class="st28" d="M493.01,131.06c4.87,8.95,2.68,20.59,1.78,30.48C487.48,152.81,486.74,140.64,493.01,131.06z"/>
				<linearGradient id="SVGID_30_" gradientUnits="userSpaceOnUse" x1="179.8523" y1="339.5553" x2="464.9464" y2="72.756">
					<stop  offset="0" style="stop-color:#EC008C"/>
					<stop  offset="1" style="stop-color:#2E3192"/>
				</linearGradient>
				<path class="st29" d="M483.62,101.9c-6.01-2.82-12.29-5.07-18.74-6.91c-0.57-0.44-1.15-0.87-1.71-1.29
					c-0.18-0.14-0.38-0.18-0.56-0.17c-0.37,0.02-0.7,0.3-0.8,0.63c-1.27-0.33-2.53-0.65-3.8-0.94c-6.87-1.61-13.91-3.08-21.02-4.32
					c-0.37-0.24-0.72-0.48-1.1-0.71c-0.46-0.27-0.88-0.04-1.06,0.34c-4.52-0.75-9.05-1.4-13.57-1.89c3.78-5.4,8.83-9.03,14.55-11.23
					l-0.59-1.57c-6.13,2.33-11.52,6.22-15.48,12.06c-0.13,0.18-0.17,0.38-0.16,0.56c-5.04-0.52-10.08-0.86-15.08-0.97
					c-2.64-0.06-5.33,0.01-8.03,0.16c9.47-3.05,17.63-9.32,23.08-17.93c0.27-0.44-0.07-1.14-0.58-1.19
					c-14.1-1.58-27.98,6.42-33.53,19.51c-0.13,0.3-0.07,0.57,0.08,0.79c-0.15,0.02-0.3,0.06-0.45,0.08
					c-0.15,0.7-0.35,1.39-0.61,2.05c8.13-1.31,16.31-1.86,24.33-1.47c8.42,0.41,16.78,1.63,25.1,2.93c0.4,0.06,0.78,0.13,1.18,0.18
					c-3.72,11.15,5.54,19.84,13.4,26.17c0.45,0.36,1.29,0.2,1.37-0.46c1.12-9.47-2.51-18.69-9.47-24.85
					c7.27,1.2,14.53,2.58,21.66,4.44c-2.11,12.81,5.72,21.69,14.54,29.84c0.63,0.57,1.6-0.13,1.34-0.9
					c-2.04-6.22,0.42-12.73-2.66-18.77c-1.68-3.3-4.24-6.01-7.05-8.42c5.04,1.55,9.99,3.38,14.78,5.63L483.62,101.9z M448.31,114.51
					c-7.15-5.88-14.99-13.6-11.6-23.65c0.11,0.02,0.21,0.04,0.32,0.05C444.59,96.28,448.89,105.22,448.31,114.51z M474.27,107.87
					c1.97,4.73,0.75,9.86,1.44,14.78c-7.51-7.18-13.86-15.13-12.08-26.32c0.14,0.04,0.28,0.08,0.42,0.11
					C468.14,99.58,472.27,103.1,474.27,107.87z"/>
				<linearGradient id="SVGID_31_" gradientUnits="userSpaceOnUse" x1="324.5279" y1="494.1515" x2="609.622" y2="227.3522">
					<stop  offset="0" style="stop-color:#EC008C"/>
					<stop  offset="1" style="stop-color:#2E3192"/>
				</linearGradient>
				<path class="st30" d="M491.44,341.71c0.04-0.03,0.08-0.06,0.13-0.08c-5.04,8.6-13.47,14.5-23.23,16.29
					c4.55-8.45,10.9-18.16,21.81-16.8C490.26,341.63,490.85,342.06,491.44,341.71z"/>
				<linearGradient id="SVGID_32_" gradientUnits="userSpaceOnUse" x1="200.3858" y1="361.4968" x2="485.4799" y2="94.6975">
					<stop  offset="0" style="stop-color:#EC008C"/>
					<stop  offset="1" style="stop-color:#2E3192"/>
				</linearGradient>
				<path class="st31" d="M474.27,107.87c1.97,4.73,0.75,9.86,1.44,14.78c-7.51-7.18-13.86-15.13-12.08-26.32
					c0.14,0.04,0.28,0.08,0.42,0.11C468.14,99.58,472.27,103.1,474.27,107.87z"/>
				<linearGradient id="SVGID_33_" gradientUnits="userSpaceOnUse" x1="336.125" y1="506.5439" x2="621.2191" y2="239.7446">
					<stop  offset="0" style="stop-color:#EC008C"/>
					<stop  offset="1" style="stop-color:#2E3192"/>
				</linearGradient>
				<path class="st32" d="M491.06,382.62c-0.06,0.04-0.14,0.08-0.21,0.11c-0.13-0.11-0.32-0.17-0.56-0.14
					c-13,2.08-27.53,3.27-38.26-5.57c13.16-3.78,27.19-1.79,38.84,5.51C490.93,382.57,491,382.59,491.06,382.62z"/>
				<linearGradient id="SVGID_34_" gradientUnits="userSpaceOnUse" x1="176.3698" y1="335.834" x2="461.4639" y2="69.0347">
					<stop  offset="0" style="stop-color:#EC008C"/>
					<stop  offset="1" style="stop-color:#2E3192"/>
				</linearGradient>
				<path class="st33" d="M461.35,57.15c0.65,0.14,0.81,0.86,0.46,1.37c-3.3,4.59-7.2,9.07-11.95,11.82
					c0.05,0.01,0.09,0.02,0.14,0.04c0.49,0.19,0.99,0.4,1.48,0.61c1.29-0.01,2.57,0.03,3.86,0.11l-0.1,1.65
					c2.03,1.09,3.92,2.41,5.38,4.19c3.46,4.21,1.76,9.24,3.36,14.06c0.22,0.66-0.36,1.17-0.96,1.07c-0.07-0.01-0.14-0.03-0.2-0.05
					c-8.15-3.19-13.66-10.6-14.51-19.26c-4.35,0.29-8.58,1.13-12.49,2.64l-0.59-1.57c0.2-0.09,0.41-0.17,0.62-0.24
					C438.25,61.68,449.46,54.46,461.35,57.15z"/>
				<linearGradient id="SVGID_35_" gradientUnits="userSpaceOnUse" x1="184.31" y1="344.3186" x2="469.4041" y2="77.5193">
					<stop  offset="0" style="stop-color:#EC008C"/>
					<stop  offset="1" style="stop-color:#2E3192"/>
				</linearGradient>
				<path class="st34" d="M437.03,90.92c7.56,5.36,11.86,14.3,11.28,23.59c-7.15-5.88-14.99-13.6-11.6-23.65
					C436.82,90.88,436.92,90.9,437.03,90.92z"/>
				<linearGradient id="SVGID_36_" gradientUnits="userSpaceOnUse" x1="333.2212" y1="503.4409" x2="618.3152" y2="236.6416">
					<stop  offset="0" style="stop-color:#EC008C"/>
					<stop  offset="1" style="stop-color:#2E3192"/>
				</linearGradient>
				<path class="st35" d="M459.97,404.88l0.98,1.3c-4.58,3.5-9.42,6.67-14.46,9.48c-3.24,1.8-6.56,3.44-9.95,4.93l-0.66-1.5
					c2.26-0.99,4.48-2.05,6.66-3.18c0.76-0.39,1.51-0.81,2.25-1.22c-0.05-0.06-0.12-0.12-0.19-0.18
					c-6.28,1.05-12.97,2.81-19.29,1.28c-5.03-1.21-9.24-4.17-12.42-8.2c-0.35-0.44-0.06-1.08,0.42-1.25
					c10.99-3.99,23.35-1.45,31.89,6.46c0.25,0.06,0.42,0.23,0.5,0.46c0.11,0.11,0.23,0.21,0.35,0.32c0.1,0.1,0.16,0.21,0.2,0.32
					c3.95-2.22,7.77-4.68,11.44-7.35C458.07,406.26,458.9,405.66,459.97,404.88z"/>
				<linearGradient id="SVGID_37_" gradientUnits="userSpaceOnUse" x1="343.9359" y1="514.8903" x2="629.0299" y2="248.091">
					<stop  offset="0" style="stop-color:#EC008C"/>
					<stop  offset="1" style="stop-color:#2E3192"/>
				</linearGradient>
				<path class="st36" d="M435.87,419.08l0.66,1.5c-0.19,0.09-0.4,0.18-0.6,0.26c-0.04,0.03-0.06,0.07-0.11,0.1
					c-0.77,0.47-1.52,0.97-2.22,1.49c0.22,0.11,0.39,0.32,0.42,0.63c1.12,12.4-3.57,24.52-12.8,32.89c-0.5,0.46-1.41,0.28-1.45-0.5
					c-0.73-11.76,1.75-24.22,10.35-32.29c-0.17,0.06-0.35,0.13-0.52,0.19l-0.56-1.53C431.34,420.99,433.62,420.08,435.87,419.08z"/>
				<linearGradient id="SVGID_38_" gradientUnits="userSpaceOnUse" x1="315.3593" y1="484.3542" x2="600.4534" y2="217.555">
					<stop  offset="0" style="stop-color:#EC008C"/>
					<stop  offset="1" style="stop-color:#2E3192"/>
				</linearGradient>
				<path class="st37" d="M429.97,398.72c0.13,0.18,0.25,0.37,0.38,0.55c-10.94-4.45-20.79-13.25-20.56-25.81
					c9.34,5.6,16.51,13.95,20.61,24.05C429.95,397.68,429.62,398.2,429.97,398.72z"/>
				<linearGradient id="SVGID_39_" gradientUnits="userSpaceOnUse" x1="325.9925" y1="495.7166" x2="611.0866" y2="228.9173">
					<stop  offset="0" style="stop-color:#EC008C"/>
					<stop  offset="1" style="stop-color:#2E3192"/>
				</linearGradient>
				<path class="st38" d="M429.04,421.84l0.56,1.53c-7.51,2.75-15.29,4.76-23.24,5.99c-0.06,0.14-0.14,0.26-0.29,0.37
					c-5.13,3.73-11.47,5.1-17.71,3.98c-3.05-0.55-6.01-1.73-8.59-3.46c-1.23-0.82-4.2-2.64-4.29-4.46c-0.09-1.94,3.02-3.3,4.33-3.95
					c3.01-1.5,6.39-2.25,9.75-2.13c6.19,0.24,11.64,3.41,15.37,8.27c0.1-0.06,0.19-0.1,0.32-0.11
					C413.38,426.67,421.35,424.66,429.04,421.84z"/>
				<linearGradient id="SVGID_40_" gradientUnits="userSpaceOnUse" x1="304.4785" y1="472.7273" x2="589.5726" y2="205.928">
					<stop  offset="0" style="stop-color:#EC008C"/>
					<stop  offset="1" style="stop-color:#2E3192"/>
				</linearGradient>
				<path class="st39" d="M401.6,398.14c-0.63,0.02-1.27-0.03-1.91-0.18c0.06,0.13,0.12,0.26,0.18,0.39
					c-0.34-0.05-0.71,0.08-0.92,0.43c-9.96-1.19-19.84-3.23-29.46-6.08l-0.46,1.55c8.1,2.43,16.42,4.29,24.81,5.57
					c-12.59,0.62-25.57,3.26-33.09,14.41c-0.4,0.58,0.26,1.18,0.8,1.2c7.99,0.45,15.94-0.91,23.27-4.16
					c3.36-1.49,6.56-3.33,9.52-5.52c1.73-1.28,3.74-2.65,5.06-4.42c0.09,0,0.18,0,0.27,0c0.44,0,0.67-0.29,0.73-0.63
					c0.47,0.05,0.94,0.11,1.41,0.15l0.19-1.73c-0.01-0.1-0.03-0.21-0.08-0.31C401.8,398.59,401.7,398.36,401.6,398.14z"/>
				<linearGradient id="SVGID_41_" gradientUnits="userSpaceOnUse" x1="265.5058" y1="431.0822" x2="550.5999" y2="164.2829">
					<stop  offset="0" style="stop-color:#EC008C"/>
					<stop  offset="1" style="stop-color:#2E3192"/>
				</linearGradient>
				<path class="st40" d="M352.47,386.69c-1-0.41-1.97-0.85-2.97-1.28c0-0.06,0-0.11-0.01-0.16c-0.02-0.07-0.04-0.13-0.06-0.2
					c-0.84-0.18-1.68-0.54-2.5-1.11c0.01,0.12,0.04,0.24,0.05,0.36c-0.24-0.11-0.48-0.23-0.72-0.34c-0.2-0.14-0.4-0.32-0.6-0.49
					c-0.76-0.27-1.51-0.55-2.23-0.97c-0.33-0.19-0.68-0.35-1.02-0.52c-0.39-0.11-0.76-0.26-1.12-0.43c0.01,0.01,0.01,0.01,0.02,0.02
					c-0.03-0.02-0.06-0.03-0.09-0.05c-0.14-0.06-0.27-0.14-0.4-0.21c-8.23-4.15-16.13-8.93-23.56-14.36c0-0.03-0.01-0.06-0.01-0.09
					c-0.5-0.39-0.98-0.82-1.41-1.33c-0.26-0.24-0.52-0.48-0.8-0.7c-0.51-0.4-1.02-0.78-1.56-1.14c-0.68-0.45-1.36-0.91-2.03-1.37
					c-0.32-0.22-0.63-0.46-0.95-0.69c0.07,0.09,0.12,0.2,0.19,0.29c-6.28-5.1-12.18-10.66-17.6-16.66l-1.16,1.05
					c11.33,12.61,24.71,23.39,39.55,31.91c5.06,2.92,10.33,5.57,15.73,7.98c0.17,0.31,0.51,0.42,0.84,0.37
					c4.83,2.13,9.78,4.04,14.81,5.74c-4.23,3.02-8.61,4.74-13.07,5.48c-0.31-0.14-0.71-0.1-0.97,0.15
					c-6.81,0.9-13.76-0.45-20.52-3.01l-0.57,1.53c5.92,2.27,11.98,3.62,17.99,3.43c-9.38,4.13-16.46,12.3-19.2,22.34
					c-0.18,0.67,0.52,1.09,1.09,0.96c5.71-1.33,11.95-5.77,16.12-9.78c3.78-3.62,6.3-8.22,6.5-13.41c0.1-0.02,0.19-0.06,0.28-0.08
					c0.35-0.11,0.5-0.36,0.54-0.64c4.43-0.87,8.79-2.7,13.02-5.79c0.26-0.18,0.36-0.43,0.35-0.67c1.53,0.5,3.06,0.98,4.6,1.43
					l0.46-1.55C363.7,390.98,358.02,388.98,352.47,386.69z"/>
				<linearGradient id="SVGID_42_" gradientUnits="userSpaceOnUse" x1="125.0403" y1="280.9848" x2="410.1344" y2="14.1855">
					<stop  offset="0" style="stop-color:#EC008C"/>
					<stop  offset="1" style="stop-color:#2E3192"/>
				</linearGradient>
				<path class="st41" d="M288.89,126.57c0.44-2.08,1.39-4.08,2.88-5.77c0.3-0.34,0.59-0.68,0.89-1.01
					c-0.16,0.14-0.34,0.26-0.49,0.4c0.81-1.4,1.69-2.76,2.59-4.1l-1.77-0.36c-1.89,2.87-3.59,5.85-5.1,8.94
					c-0.27,0.19-0.44,0.51-0.38,0.81c-2.21,4.67-3.97,9.56-5.24,14.57l1.59,0.41c1.22-4.78,2.89-9.44,4.98-13.9
					C288.86,126.55,288.88,126.56,288.89,126.57z"/>
				<linearGradient id="SVGID_43_" gradientUnits="userSpaceOnUse" x1="112.8654" y1="267.975" x2="397.9595" y2="1.1757">
					<stop  offset="0" style="stop-color:#EC008C"/>
					<stop  offset="1" style="stop-color:#2E3192"/>
				</linearGradient>
				<path class="st42" d="M298.5,108.32C298.5,108.32,298.5,108.32,298.5,108.32c1.94-9.01-0.24-18.63-6.31-25.92
					c-0.34-0.41-1.2-0.56-1.43,0.09c-3.18,9.06-6.56,26,2.22,33.23l1.77,0.36c0.37,0.19,0.87,0.14,1.12-0.34
					c0.53-1.04,0.97-2.1,1.38-3.17c0.19-0.25,0.4-0.49,0.59-0.74C297.88,110.67,298.09,109.49,298.5,108.32z"/>
				<linearGradient id="SVGID_44_" gradientUnits="userSpaceOnUse" x1="271.5604" y1="437.552" x2="556.6545" y2="170.7527">
					<stop  offset="0" style="stop-color:#EC008C"/>
					<stop  offset="1" style="stop-color:#2E3192"/>
				</linearGradient>
				<path class="st43" d="M328.3,394.93l-0.57,1.53c-1-0.37-1.99-0.77-2.97-1.2c-0.08,0-0.15,0-0.23,0.01
					c-5.57,11.27-17.29,18.44-29.9,18.18c-0.61-0.02-1.11-0.61-0.8-1.21c5.46-10.5,15.96-17.44,27.6-18.5
					c-3.17-1.53-6.26-3.26-9.27-5.08l0.85-1.4c3.86,2.33,7.89,4.52,12,6.32l0.05,0c0.28,0.01,0.49,0.13,0.64,0.3
					C326.58,394.25,327.44,394.6,328.3,394.93z"/>
				<linearGradient id="SVGID_45_" gradientUnits="userSpaceOnUse" x1="152.6545" y1="310.4925" x2="437.7486" y2="43.6932">
					<stop  offset="0" style="stop-color:#EC008C"/>
					<stop  offset="1" style="stop-color:#2E3192"/>
				</linearGradient>
				<path class="st44" d="M294.96,218.9c-7.85-6.72-18.14-9.3-28.17-7.18c0.07-0.08,0.13-0.17,0.19-0.25
					c-0.09,0.02-0.19,0.01-0.28,0.02c-0.46,0.08-0.92,0.16-1.38,0.23c-0.24,0.04-0.48,0.01-0.71-0.04c-1.77,2.13-3.61,4.2-5.55,6.2
					c1.81-8.21,4.25-16.32,7.23-24.25l-1.35-0.51c-2.28,5.98-4.25,12.08-5.91,18.26c-2.9,10.83-4.55,21.83-4.95,32.8
					c-2.48-7.12-4.14-14.48-4.83-22.02c-0.16-1.69-0.27-3.39-0.33-5.09l-1.64,0.06c0,0.33,0.02,0.66,0.03,0.98
					c-3.1-9.09-9.79-16.65-18.73-20.73c-0.44-0.2-1.15,0.01-1.19,0.58c-1.01,13,5.96,26.43,19.93,28.08c0.04,0.01,0.07,0,0.12-0.01
					c0.13,0.28,0.37,0.44,0.64,0.47c1.06,7.61,3.06,15.04,5.9,22.19c0,0.36,0,0.71,0,1.07l1.45,0c0.33-0.16,0.55-0.51,0.37-0.96
					c-0.13-0.32-0.24-0.64-0.36-0.95c0.04-3.72,0.23-7.44,0.6-11.16c0.55-5.52,1.4-11.04,2.54-16.53c0.26,0.07,0.55,0.03,0.79-0.22
					c1.73-1.73,3.41-3.53,5.01-5.36c0.05,0.08,0.09,0.16,0.16,0.23c3.73,3.67,7.81,7.61,13.1,8.78c5.87,1.3,11.72-1.05,17.05-3.28
					C295.24,220.08,295.46,219.34,294.96,218.9z M277.97,221.97c-4.94-1.05-8.77-4.88-12.24-8.3c0.01-0.01,0.02,0,0.03,0
					c9.48-2.49,19.38-0.37,27.03,5.63C288.11,221.23,283.07,223.06,277.97,221.97z"/>
				<linearGradient id="SVGID_46_" gradientUnits="userSpaceOnUse" x1="126.3238" y1="282.3563" x2="411.4179" y2="15.557">
					<stop  offset="0" style="stop-color:#EC008C"/>
					<stop  offset="1" style="stop-color:#2E3192"/>
				</linearGradient>
				<path class="st45" d="M281.55,159.3c-0.02,0.03-0.04,0.07-0.06,0.1c0-0.31,0.03-0.61,0.03-0.92c0-0.2,0-0.4,0.02-0.61
					c0.12-5.9,0.89-11.74,2.33-17.41l-1.59-0.41c-0.3,1.13-0.56,2.26-0.8,3.4c-0.17-10.64-3.45-20.88-9.66-29.71
					c-0.42-0.59-1.34-0.4-1.51,0.3c-2.97,12.45,0.6,25.44,9.41,34.69c0.02,0.02,0.03,0.01,0.04,0.03c0.13,0.32,0.43,0.52,0.73,0.56
					c-0.47,3.61-0.7,7.26-0.66,10.93c0.01,0.48,0.33,0.71,0.69,0.74c-1.74,2.88-3.39,5.8-4.98,8.74c-1.63,3.04-3.16,6.12-4.62,9.24
					l1.32,0.62c2.97-6.32,6.29-12.46,9.89-18.37C281.84,160.61,281.64,159.98,281.55,159.3z"/>
				<linearGradient id="SVGID_47_" gradientUnits="userSpaceOnUse" x1="250.5269" y1="415.0761" x2="535.621" y2="148.2768">
					<stop  offset="0" style="stop-color:#EC008C"/>
					<stop  offset="1" style="stop-color:#2E3192"/>
				</linearGradient>
				<path class="st46" d="M313.03,387.27l-0.85,1.4c-3.87-2.33-7.57-4.81-11.06-7.2c-0.1,0.27-0.32,0.51-0.68,0.56
					c-13.15,1.87-20.32-10.65-25.16-20.75c-0.31-0.66,0.57-1.36,1.16-1.02c5.54,3.28,12.16,4.29,17.47,7.96
					c4.2,2.92,7.09,7.09,8.73,11.9c0.05,0.15,0.05,0.28,0.03,0.4C305.94,382.77,309.41,385.08,313.03,387.27z"/>
				<linearGradient id="SVGID_48_" gradientUnits="userSpaceOnUse" x1="225.205" y1="388.0179" x2="510.2991" y2="121.2186">
					<stop  offset="0" style="stop-color:#EC008C"/>
					<stop  offset="1" style="stop-color:#2E3192"/>
				</linearGradient>
				<path class="st47" d="M293.09,345.26l-1.16,1.05c-0.24-0.26-0.48-0.52-0.71-0.79c-0.06,0.02-0.1,0.06-0.16,0.07
					c-11.63,2.37-26.47,4.4-33.96-7.24c-0.3-0.47-0.08-1.06,0.42-1.25c9.51-3.59,19.93-2.64,28.56,2.35
					c-1.11-1.38-2.19-2.78-3.24-4.21l1.27-0.95C286.92,338.09,289.93,341.76,293.09,345.26z"/>
				<linearGradient id="SVGID_49_" gradientUnits="userSpaceOnUse" x1="164.8653" y1="323.5406" x2="449.9594" y2="56.7413">
					<stop  offset="0" style="stop-color:#EC008C"/>
					<stop  offset="1" style="stop-color:#2E3192"/>
				</linearGradient>
				<path class="st48" d="M292.8,219.3c-4.69,1.94-9.73,3.76-14.83,2.67c-4.94-1.05-8.77-4.88-12.24-8.3c0.01-0.01,0.02,0,0.03,0
					C275.24,211.18,285.15,213.29,292.8,219.3z"/>
				<linearGradient id="SVGID_50_" gradientUnits="userSpaceOnUse" x1="201.2477" y1="362.4178" x2="486.3418" y2="95.6185">
					<stop  offset="0" style="stop-color:#EC008C"/>
					<stop  offset="1" style="stop-color:#2E3192"/>
				</linearGradient>
				<path class="st49" d="M284.36,333.14c-0.26-0.28-0.51-0.58-0.75-0.88l-0.37-0.05c-0.21-0.08-0.45-0.09-0.66,0
					c-0.69-0.96-1.37-1.92-2.02-2.9c-3.03-4.46-5.81-9.11-8.34-13.89c0.05-0.32-0.04-0.67-0.42-0.87c-0.02-0.01-0.04-0.02-0.06-0.03
					c-8.37-16.06-13.79-33.63-15.62-51.6l-1.49,0.14c1.53,15.99,5.81,31.72,12.85,46.65c0.52,1.11,1.07,2.21,1.61,3.3
					c-7.74-4.7-14.14-11.3-18.59-19.23l-1.45,0.83c0.16,0.29,0.33,0.57,0.49,0.85c2.26,3.88,4.99,7.42,8.1,10.59
					c-7.98-1.78-16.25,0.54-22.2,6.43c-0.35,0.35-0.2,0.86,0.08,1.18c7.37,8.29,20.93,4.04,27.89-2.52c2.24,1.71,4.61,3.26,7.1,4.61
					c3.61,6.84,7.74,13.35,12.33,19.51l1.27-0.95c-0.08-0.1-0.16-0.22-0.24-0.32C284.11,333.71,284.25,333.43,284.36,333.14z"/>
				<linearGradient id="SVGID_51_" gradientUnits="userSpaceOnUse" x1="174.1911" y1="333.5059" x2="459.2852" y2="66.7066">
					<stop  offset="0" style="stop-color:#EC008C"/>
					<stop  offset="1" style="stop-color:#2E3192"/>
				</linearGradient>
				<path class="st50" d="M276.15,232.43c0.47-0.32,1.34-0.02,1.29,0.63c-0.9,13.18-9.13,24.74-21.32,29.85c0,0,0,0-0.01,0
					l-1.49,0.14c-0.43-4.41-0.64-8.84-0.65-13.28l1.45,0c0,1.87,0.05,3.74,0.13,5.59C258.22,245.2,267.54,238.28,276.15,232.43z"/>
				<linearGradient id="SVGID_52_" gradientUnits="userSpaceOnUse" x1="134.6057" y1="291.2061" x2="419.6998" y2="24.4068">
					<stop  offset="0" style="stop-color:#EC008C"/>
					<stop  offset="1" style="stop-color:#2E3192"/>
				</linearGradient>
				<path class="st51" d="M270.92,178.97l1.32,0.62c-2.17,4.6-4.16,9.29-5.95,14.05l-1.35-0.51c0.91-2.45,1.88-4.87,2.91-7.28
					c-0.14-0.17-0.22-0.4-0.17-0.67c0.07-0.43,0.15-0.86,0.23-1.3c-0.06-0.04-0.13-0.06-0.18-0.11c-9.67-9.03-6.13-25.39-5.67-37.13
					c0.03-0.64,0.83-1.26,1.38-0.68c9.03,9.57,8.53,22.59,6.67,34.77C270.37,180.14,270.64,179.55,270.92,178.97z"/>
				<linearGradient id="SVGID_53_" gradientUnits="userSpaceOnUse" x1="136.4418" y1="293.1681" x2="421.5359" y2="26.3688">
					<stop  offset="0" style="stop-color:#EC008C"/>
					<stop  offset="1" style="stop-color:#2E3192"/>
				</linearGradient>
				<path class="st52" d="M249.22,159.78c6.21,11.78,11,26.9,1.18,38.2c-0.12,0.14-0.26,0.21-0.4,0.25
					c0.23,3.65-0.87,7.58-1.04,11.19c-0.12,2.55-0.14,5.1-0.04,7.65l-1.64,0.06c-0.1-2.53-0.1-5.06,0.02-7.6
					c0.17-3.64,1.29-7.77,1.01-11.45c-11.21-8.98-4.54-27.31-0.52-38.21C248,159.32,248.95,159.26,249.22,159.78z"/>
				<linearGradient id="SVGID_54_" gradientUnits="userSpaceOnUse" x1="178.3895" y1="337.9922" x2="463.4836" y2="71.1929">
					<stop  offset="0" style="stop-color:#EC008C"/>
					<stop  offset="1" style="stop-color:#2E3192"/>
				</linearGradient>
				<path class="st53" d="M250.31,293.44c0.07,0.11,0.12,0.23,0.19,0.33l-1.45,0.83c-0.16-0.28-0.31-0.56-0.46-0.86
					c-0.12,0.17-0.32,0.28-0.59,0.3c-12.97,0.81-23.55-9.29-23.22-22.32c0.02-0.63,0.6-1.09,1.21-0.8
					c6.93,3.31,14.16,7.05,18.62,13.29c-0.27-0.89-0.52-1.79-0.74-2.68c-0.59-2.39-0.92-4.84-1.28-7.27l1.6-0.23
					c0.28,1.92,0.55,3.84,0.97,5.75C246.2,284.54,247.95,289.17,250.31,293.44z"/>
				<linearGradient id="SVGID_55_" gradientUnits="userSpaceOnUse" x1="165.0705" y1="323.7599" x2="450.1646" y2="56.9606">
					<stop  offset="0" style="stop-color:#EC008C"/>
					<stop  offset="1" style="stop-color:#2E3192"/>
				</linearGradient>
				<path class="st54" d="M244.19,274.03l-1.6,0.23c-0.46-3.13-0.97-6.24-2.09-9.22c-11.23-3.86-9.05-20.36-7.01-29.4
					c0.16-0.72,1.08-0.87,1.51-0.3c6.26,8.47,13.03,19.04,7.48,29.63c-0.04,0.09-0.1,0.13-0.15,0.19
					C243.32,268.05,243.75,271.03,244.19,274.03z"/>
			</g>
		</g>
		<linearGradient id="SVGID_56_" gradientUnits="userSpaceOnUse" x1="310.2414" y1="478.8853" x2="595.3354" y2="212.086">
			<stop  offset="0" style="stop-color:#EC008C"/>
			<stop  offset="1" style="stop-color:#2E3192"/>
		</linearGradient>
		<path class="st55" d="M631.11,268.35c-2.62-2.96-20.26,1.36-20.26,1.36s2.37-3.24-0.97-4.68c-3.34-1.44-16.07,3.37-16.07,3.37
			s4.93-2.2,2.81-4.5c-2.79-3.03-9.54,1.74-18.36,2.56c5.46-1.8,4.01-6.23-6.62-4.9c-5.93,0.74-17.76,0.27-34.09-1.66
			c-11.47-1.35-29.5-5.14-41.68-8.45c-13.6-3.7-30.74-8.95-30.74-8.95c-5.22,8.65-9.13,22.93-11.9,30.08
			c-6.48,16.73-17.02,21.48-21.37,24.64c6.73,4.56,10.33,4.89,15.88,5.83c5.55,0.95,10.23,0.77,16.76,0.83
			c5.95,0.05,21.77-5.04,27.25-5.56c5.83-0.55,0.81-8.88,0.81-8.88s5.72,4.05,10.23,3.12c4.96-1.02,1.3-7.07,1.3-7.07
			s10.47,5.25,15.78,4.94c5.31-0.31,3.82-4.24,3.82-4.24s9.08,3.26,14.74,2.35c5.66-0.92,5.6-4.85,2.1-5.38
			c-9.59-1.45-23.36-6.37,6.34-3.57c25.82,2.44,52.76,0.6,60.78-1C626.26,274.89,632.9,270.37,631.11,268.35z"/>
		<linearGradient id="SVGID_57_" gradientUnits="userSpaceOnUse" x1="197.3607" y1="358.2642" x2="482.4548" y2="91.4649">
			<stop  offset="0" style="stop-color:#EC008C"/>
			<stop  offset="1" style="stop-color:#2E3192"/>
		</linearGradient>
		<path class="st56" d="M405.11,302.85c-1.89,0.73-8.48,6.38-27.02-5.28c21.64,6.9,17.25,2.02,28.42,1.09
			c5.01-0.42,17.36-1.05,28.61-8.58c15.94-10.68,16.19-23.36,20.48-33.4c1.66-3.87,3.54-8.42,5.34-12.18
			c2-4.18,5.9-11.14,9.16-15.54c2.78-3.76,5.84-7.36,8.67-8.85c0.1-0.05,0.21-0.26,0.34-0.53c3.09-0.23,7.3-0.87,8.11-0.67
			c1.08,0.27,3.41,1.74,5.4,1.95c0.19-2.95-2.28-5.65-3.39-6.82c-1.1-2.28-3.02-4.39-3.53-4.84c-0.01,0-0.02,0-0.02,0
			c-0.05-0.15-0.11-0.29-0.21-0.42c-0.97-1.3-2.1-4.79-7.12-6.99c-5.02-2.2-12.38-0.24-15.24,1.4c-1.17,0.67-3.41,2.19-5.44,4.03
			c-3.2,2.9-7.67,6.49-11.25,8.35c-1.18,0.61-2.52,1.15-3.93,1.63c-7.62,2.59-19.03-0.19-25.11-5.9
			c-16.16-15.18-15.37-32.41-22.62-50.16c-8.34-20.41-20.01-36.81-18.05-70.47c1.96-33.66,8.23-42.35,2.53-43.51
			c-5.7-1.16-17.7,23.16-18.19,46.65c-3.64-17.34-3.14-35.89-2.19-47.16c0.66-7.88-9.72,1.52-11.93,20.5
			c-1.84,15.78-0.65,26.09-0.65,26.09s-7.12-12.32-12.74-40.52c-2.34-11.76-6.87,3.37-7.53,14.66c-0.48,8.31,5.84,24.44,5.84,24.44
			s-11.76-21.68-14.59-19.85c-7.17,4.64,2.83,22.35,2.83,22.35s-8.95-8.14-11.69-3.58c-3.21,5.33,7.4,22.5,7.4,22.5
			s-9.78-8.44-13.12-3.96c-5.56,7.45,10.65,23.41,10.65,23.41s-11.63-6.6-13.42-0.64c-2.21,7.35,12.49,19.89,12.49,19.89
			s-11.83-4.82-13.07,0.11c-1.51,6.01,13.39,14.42,13.39,14.42s-13.41-3.97-13.22,2.71c0.26,8.99,14.1,12.14,14.1,12.14
			s-11.83-1.27-11.03,4.87c0.6,4.56,9.32,9.54,9.32,9.54s-9.31,0.33-7.96,7.09c1.34,6.71,3.26,9.47,5.47,15.71
			c1.99,5.63,5.4,8.6,8.61,13.44c3.09,4.66,4.25,6.19,8.03,11.05c3.84,4.94,18.38,11.54,22.6,14.1c4.77,2.89,15.76,3.81,16.76,3.01
			c31.28-25.34,23.91-16.95,3.7,3.04c-2.46,2.43-7.78,6.36-11.15,7.61c-9.88,3.66-18.75,0.89-31.54-0.33
			c-20.18-1.93-32.38-5.27-33.77-1.4c-2.16,6.01-9.17,22.57-8.46,29.75c0.63,6.4,4.42,23.83,9.18,29.46
			c3.49,4.14,6.68,7.9,11.72,11.58c4.02,2.92,7.78,4.88,13.09,7.52c5.11,2.55,9.93,3.85,13.97,5.32c4.03,1.47,8.45,2.46,13.35,3.03
			c6.34,0.74,24.57-3.03,29.14-3.56c6.43-0.75,24.61-5.65,32.45-8.88c5.11-2.11,10.07-5.08,11.85-7.99
			c1.67-2.74,2.15-4.13-3.13-12.67C412.28,316.96,406.94,308.15,405.11,302.85z M473.65,205.83c1.18,0.07,2.08,1.08,2.01,2.26
			c-0.07,1.18-1.08,2.08-2.26,2.01c-1.18-0.07-2.08-1.08-2.01-2.26C471.46,206.66,472.47,205.76,473.65,205.83z"/>
		<g id="XMLID_5_">
			<g>
				<linearGradient id="SVGID_58_" gradientUnits="userSpaceOnUse" x1="355.317" y1="527.0519" x2="640.4111" y2="260.2526">
					<stop  offset="0" style="stop-color:#EC008C"/>
					<stop  offset="1" style="stop-color:#2E3192"/>
				</linearGradient>
				<path class="st57" d="M561.52,297.45c0.23-0.53,0.47-1.06,0.7-1.59c1.23,1.34,1.21,6.95,0.86,12.31
					c-0.99-0.01-1.18,1.54-0.16,1.85c0.01,0.03,0.01,0.06,0.02,0.09c-0.16,1.98-0.33,3.85-0.5,5.36l1.85,0.17
					c0.01-0.11,0.02-0.22,0.03-0.33c4.29,13.01,14.27,23.52,27.33,28.28c0.92,0.33,1.64-0.63,1.15-1.44
					c-2.43-4.02-2.54-8.93-4.3-13.25c-1.48-3.62-3.61-6.97-6.21-9.88c-4.72-5.25-10.8-8.82-17.58-10.52
					c0.11-3.38,0.18-6.79-0.06-10.15c-0.09-1.26-0.15-2.4-0.59-3.25c-0.79,0.15-1.58,0.25-2.38,0.37
					C561.64,296.13,561.58,296.79,561.52,297.45z"/>
				<linearGradient id="SVGID_59_" gradientUnits="userSpaceOnUse" x1="353.3151" y1="524.9127" x2="638.4092" y2="258.1134">
					<stop  offset="0" style="stop-color:#EC008C"/>
					<stop  offset="1" style="stop-color:#2E3192"/>
				</linearGradient>
				<path class="st58" d="M562.44,315.47l1.85,0.17c-0.56,6.57-1.59,13.1-3.1,19.52c-0.97,4.13-2.13,8.2-3.47,12.2l-1.78-0.59
					c0.9-2.67,1.71-5.36,2.43-8.08c0.25-0.94,0.47-1.9,0.7-2.84c-0.1,0-0.19,0.02-0.3,0.02c-3.94,6.12-7.59,13.13-13.75,17.3
					c-4.89,3.32-10.63,4.62-16.48,4.2c-0.63-0.04-0.96-0.78-0.74-1.32c5.08-12.36,16.72-20.86,29.97-22.01
					c0.25-0.17,0.52-0.17,0.77-0.07c0.18-0.01,0.36-0.03,0.54-0.05c0.16,0,0.31,0.03,0.43,0.07c1.15-5.05,2.01-10.18,2.58-15.33
					C562.15,318.14,562.29,316.98,562.44,315.47z"/>
				<linearGradient id="SVGID_60_" gradientUnits="userSpaceOnUse" x1="373.9818" y1="546.9965" x2="659.0758" y2="280.1972">
					<stop  offset="0" style="stop-color:#EC008C"/>
					<stop  offset="1" style="stop-color:#2E3192"/>
				</linearGradient>
				<path class="st59" d="M555.94,346.77l1.78,0.59c-0.08,0.23-0.16,0.47-0.24,0.71c-0.01,0.05,0.01,0.11,0,0.17
					c-0.2,1.01-0.35,2.03-0.44,3.02c0.26-0.1,0.57-0.08,0.86,0.13c11.35,8.59,18,21.87,17.99,36.12c0,0.78-0.84,1.41-1.54,0.84
					c-10.51-8.42-19.14-20.1-19.36-33.58c-0.08,0.19-0.16,0.4-0.24,0.59l-1.73-0.71C554.07,352.07,555.05,349.44,555.94,346.77z"/>
				<linearGradient id="SVGID_61_" gradientUnits="userSpaceOnUse" x1="367.5722" y1="540.1474" x2="652.6663" y2="273.3481">
					<stop  offset="0" style="stop-color:#EC008C"/>
					<stop  offset="1" style="stop-color:#2E3192"/>
				</linearGradient>
				<path class="st60" d="M553.02,354.67l1.73,0.71c-3.45,8.47-7.72,16.6-12.79,24.26c0.07,0.15,0.11,0.32,0.09,0.53
					c-0.79,7.21-4.5,13.63-10.25,18.04c-2.81,2.16-6.08,3.76-9.53,4.61c-1.64,0.41-5.46,1.53-7.07,0.2
					c-1.71-1.41-0.47-5.09-0.01-6.7c1.04-3.7,3.01-7.13,5.69-9.88c4.96-5.06,11.83-7.23,18.81-6.65c0.03-0.12,0.07-0.24,0.15-0.36
					C545.07,371.63,549.5,363.35,553.02,354.67z"/>
			</g>
		</g>
	</g>
</g>
</svg>
